<svg width="50" height="50" viewBox="0 0 50 50" fill="none" xmlns="http://www.w3.org/2000/svg">
<g clip-path="url(#clip0_53379_35514)">
<path d="M48.9164 24.7678C48.9164 38.1047 38.1047 48.9164 24.7678 48.9164C11.4309 48.9164 0.619195 38.1047 0.619195 24.7678C0.619195 11.4309 11.4309 0.619195 24.7678 0.619195C38.1047 0.619195 48.9164 11.4309 48.9164 24.7678Z" stroke="black" stroke-width="1.23839"/>
<path d="M8.04986 8.04937H41.4864V41.4859H8.04986V8.04937Z" stroke="black" stroke-width="1.23839"/>
<mask id="path-3-inside-1_53379_35514" fill="white">
<path fill-rule="evenodd" clip-rule="evenodd" d="M42.0166 7.51758L24.7676 42.0156L7.51855 7.51758"/>
</mask>
<path d="M24.7676 42.0156L23.6599 42.5694L24.7676 44.7847L25.8752 42.5694L24.7676 42.0156ZM40.9089 6.96375L23.6599 41.4618L25.8752 42.5694L43.1242 8.0714L40.9089 6.96375ZM25.8752 41.4618L8.6262 6.96375L6.4109 8.0714L23.6599 42.5694L25.8752 41.4618Z" fill="black" mask="url(#path-3-inside-1_53379_35514)"/>
</g>
<defs>
<clipPath id="clip0_53379_35514">
<rect width="49.5356" height="49.5356" fill="white"/>
</clipPath>
</defs>
</svg>
