<svg width="48" height="48" viewBox="0 0 48 48" fill="none" xmlns="http://www.w3.org/2000/svg">
<path d="M24 6C26.3638 6 28.7044 6.46558 30.8883 7.37017C33.0722 8.27475 35.0565 9.60062 36.7279 11.2721C38.3994 12.9435 39.7252 14.9278 40.6298 17.1117C41.5344 19.2956 42 21.6362 42 24C42 26.3638 41.5344 28.7044 40.6298 30.8883C39.7252 33.0722 38.3994 35.0565 36.7279 36.7279C35.0565 38.3994 33.0722 39.7253 30.8883 40.6298C28.7044 41.5344 26.3638 42 24 42L24 38.04C25.8438 38.04 27.6695 37.6768 29.3729 36.9713C31.0763 36.2657 32.624 35.2315 33.9278 33.9278C35.2315 32.624 36.2657 31.0763 36.9713 29.3729C37.6768 27.6695 38.04 25.8438 38.04 24C38.04 22.1562 37.6768 20.3305 36.9713 18.6271C36.2657 16.9237 35.2315 15.376 33.9278 14.0722C32.624 12.7685 31.0763 11.7343 29.3729 11.0287C27.6695 10.3232 25.8438 9.96 24 9.96V6Z" fill="#6750A4"/>
</svg>
