<svg width="25" height="24" viewBox="0 0 25 24" fill="none" xmlns="http://www.w3.org/2000/svg">
<path fill-rule="evenodd" clip-rule="evenodd" d="M10.14 7.64C10.37 7.14 10.5 6.59 10.5 6C10.5 3.79 8.71 2 6.5 2C4.29 2 2.5 3.79 2.5 6C2.5 8.21 4.29 10 6.5 10C7.09 10 7.64 9.87 8.14 9.64L10.5 12L8.14 14.36C7.64 14.13 7.09 14 6.5 14C4.29 14 2.5 15.79 2.5 18C2.5 20.21 4.29 22 6.5 22C8.71 22 10.5 20.21 10.5 18C10.5 17.41 10.37 16.86 10.14 16.36L12.5 14L19.5 21H22.5V20L10.14 7.64ZM6.5 8C5.4 8 4.5 7.11 4.5 6C4.5 4.89 5.4 4 6.5 4C7.6 4 8.5 4.89 8.5 6C8.5 7.11 7.6 8 6.5 8ZM4.5 18C4.5 19.11 5.4 20 6.5 20C7.6 20 8.5 19.11 8.5 18C8.5 16.89 7.6 16 6.5 16C5.4 16 4.5 16.89 4.5 18ZM12.5 12.5C12.22 12.5 12 12.28 12 12C12 11.72 12.22 11.5 12.5 11.5C12.78 11.5 13 11.72 13 12C13 12.28 12.78 12.5 12.5 12.5ZM13.5 9L19.5 3H22.5V4L15.5 11L13.5 9Z" fill="#49454F"/>
</svg>
